<?xml version="1.0" encoding="utf-8"?><svg xmlns="http://www.w3.org/2000/svg" xmlns:xlink="http://www.w3.org/1999/xlink"><symbol fill="none" viewBox="0 0 9 12" id="arrow_left_icon" xmlns="http://www.w3.org/2000/svg"><path d="M8.16 1.41L3.58 6l4.58 4.59L6.75 12l-6-6 6-6 1.41 1.41z" fill="currentColor"/></symbol><symbol fill="none" viewBox="0 0 20 20" id="dialog_icon" xmlns="http://www.w3.org/2000/svg"><path fill-rule="evenodd" clip-rule="evenodd" d="M4 19.804L10.087 16H18a2 2 0 002-2V2a2 2 0 00-2-2H2a2 2 0 00-2 2v12a2 2 0 002 2h2v3.804zM9.513 14L6 16.196V14H2V2h16v12H9.513z" fill="currentColor"/></symbol><symbol fill="none" viewBox="0 0 20 21" id="edit_icon" xmlns="http://www.w3.org/2000/svg"><path fill-rule="evenodd" clip-rule="evenodd" d="M14.437 0c.655 0 1.283.261 1.741.723l3.101 3.101a2.462 2.462 0 010 3.482L7.958 18.624c-.699.806-1.69 1.3-2.823 1.378H0v-1l.003-4.215c.085-1.054.576-2.035 1.323-2.694L12.696.725A2.456 2.456 0 0114.436 0zM5.064 18.005c.534-.038 1.031-.287 1.43-.743L14.058 9.7l-3.755-3.755-7.606 7.605c-.405.358-.656.86-.696 1.318v3.135l3.064.002zM11.717 4.53l3.754 3.755 2.394-2.394a.462.462 0 000-.653L14.76 2.135a.456.456 0 00-.647 0L11.717 4.53z" fill="currentColor"/></symbol><symbol fill="none" viewBox="0 0 47 20" id="logo" xmlns="http://www.w3.org/2000/svg"><path d="M.264 15h9.311v-2.536H3.34V.454H.264V15zm16.22.213c3.31 0 5.37-2.266 5.37-5.625 0-3.38-2.06-5.64-5.37-5.64s-5.37 2.26-5.37 5.64c0 3.36 2.06 5.625 5.37 5.625zm.014-2.344c-1.527 0-2.308-1.399-2.308-3.302 0-1.904.781-3.31 2.308-3.31 1.499 0 2.28 1.406 2.28 3.31 0 1.903-.781 3.302-2.28 3.302zm12.237 6.45c3.118 0 5.334-1.421 5.334-4.212V4.09h-3.004v1.832h-.114c-.404-.887-1.292-1.974-3.117-1.974-2.394 0-4.418 1.86-4.418 5.575 0 3.63 1.967 5.32 4.425 5.32 1.74 0 2.713-.874 3.11-1.776h.128v1.996c0 1.498-.959 2.08-2.273 2.08-1.335 0-2.01-.581-2.258-1.242l-2.798.376c.362 1.72 2.045 3.04 4.985 3.04zm.064-6.748c-1.484 0-2.294-1.179-2.294-3.061 0-1.854.796-3.153 2.294-3.153 1.47 0 2.294 1.242 2.294 3.153 0 1.925-.838 3.061-2.294 3.061zm12.607 2.642c3.31 0 5.37-2.266 5.37-5.625 0-3.38-2.06-5.64-5.37-5.64s-5.37 2.26-5.37 5.64c0 3.36 2.06 5.625 5.37 5.625zm.014-2.344c-1.527 0-2.308-1.399-2.308-3.302 0-1.904.781-3.31 2.308-3.31 1.499 0 2.28 1.406 2.28 3.31 0 1.903-.781 3.302-2.28 3.302z" fill="currentColor"/></symbol><symbol fill="none" viewBox="0 0 20 20" id="posts_icon" xmlns="http://www.w3.org/2000/svg"><path fill-rule="evenodd" clip-rule="evenodd" d="M18 0H2a2 2 0 00-2 2v8a2 2 0 002 2h16a2 2 0 002-2V2a2 2 0 00-2-2zM2 10V2h16v8H2zm18 4v2H0v-2h20zm0 6v-2H0v2h20z" fill="currentColor"/></symbol><symbol fill="none" viewBox="0 0 17 16" id="zoom_icon" xmlns="http://www.w3.org/2000/svg"><path d="M7.292 12.888a6.362 6.362 0 003.71-1.196l3.935 3.935a.946.946 0 00.681.274c.54 0 .922-.415.922-.946a.901.901 0 00-.266-.665l-3.91-3.917a6.359 6.359 0 001.312-3.869c0-3.51-2.872-6.383-6.384-6.383C3.79.121.91 2.985.91 6.504c0 3.512 2.872 6.384 6.383 6.384zm0-1.378c-2.739 0-5.005-2.266-5.005-5.006 0-2.739 2.266-5.005 5.005-5.005 2.74 0 5.006 2.266 5.006 5.005 0 2.74-2.266 5.006-5.006 5.006z" fill="currentColor"/></symbol></svg>