<svg width="47" height="20" viewBox="0 0 47 20" fill="none" xmlns="http://www.w3.org/2000/svg">
<path d="M0.264205 15H9.57528V12.4645H3.33949V0.454545H0.264205V15ZM16.484 15.2131C19.7937 15.2131 21.8533 12.9474 21.8533 9.58807C21.8533 6.20739 19.7937 3.94886 16.484 3.94886C13.1744 3.94886 11.1147 6.20739 11.1147 9.58807C11.1147 12.9474 13.1744 15.2131 16.484 15.2131ZM16.4982 12.8693C14.9712 12.8693 14.19 11.4702 14.19 9.56676C14.19 7.66335 14.9712 6.2571 16.4982 6.2571C17.9968 6.2571 18.7781 7.66335 18.7781 9.56676C18.7781 11.4702 17.9968 12.8693 16.4982 12.8693ZM28.7354 19.3182C31.8533 19.3182 34.0692 17.8977 34.0692 15.1065V4.09091H31.065V5.9233H30.9513C30.5465 5.03551 29.6587 3.94886 27.8335 3.94886C25.44 3.94886 23.4158 5.80966 23.4158 9.52415C23.4158 13.1534 25.3832 14.8438 27.8406 14.8438C29.5806 14.8438 30.5536 13.9702 30.9513 13.0682H31.0792V15.0639C31.0792 16.5625 30.1204 17.1449 28.8065 17.1449C27.4712 17.1449 26.7965 16.5625 26.5479 15.902L23.7496 16.2784C24.1119 17.9972 25.7951 19.3182 28.7354 19.3182ZM28.7994 12.571C27.315 12.571 26.5053 11.392 26.5053 9.50994C26.5053 7.65625 27.3008 6.35653 28.7994 6.35653C30.2695 6.35653 31.0934 7.59943 31.0934 9.50994C31.0934 11.4347 30.2553 12.571 28.7994 12.571ZM41.4059 15.2131C44.7156 15.2131 46.7752 12.9474 46.7752 9.58807C46.7752 6.20739 44.7156 3.94886 41.4059 3.94886C38.0962 3.94886 36.0366 6.20739 36.0366 9.58807C36.0366 12.9474 38.0962 15.2131 41.4059 15.2131ZM41.4201 12.8693C39.8931 12.8693 39.1119 11.4702 39.1119 9.56676C39.1119 7.66335 39.8931 6.2571 41.4201 6.2571C42.9187 6.2571 43.6999 7.66335 43.6999 9.56676C43.6999 11.4702 42.9187 12.8693 41.4201 12.8693Z" fill="black"/>
</svg>
